<?xml version="1.0" standalone="no"?>
<!DOCTYPE svg PUBLIC "-//W3C//DTD SVG 20010904//EN"
 "http://www.w3.org/TR/2001/REC-SVG-20010904/DTD/svg10.dtd">
<svg version="1.0" xmlns="http://www.w3.org/2000/svg"
 width="180.000000pt" height="180.000000pt" viewBox="0 0 180.000000 180.000000"
 preserveAspectRatio="xMidYMid meet">
<metadata>
Created by potrace 1.14, written by Peter Selinger 2001-2017
</metadata>
<g transform="translate(0.000000,180.000000) scale(0.100000,-0.100000)"
fill="#000000" stroke="none">
<path d="M16 1510 c-17 -21 -17 -1200 1 -1221 16 -20 346 -20 365 -1 9 9 13
73 13 242 0 126 4 232 8 237 5 4 95 8 200 9 106 1 193 2 194 3 1 0 -3 16 -8
34 -6 17 -12 39 -14 47 -2 8 -9 29 -15 45 -12 29 -16 45 -26 94 -3 13 -11 36
-18 50 l-14 26 -147 0 c-90 0 -149 3 -153 10 -4 5 -7 101 -7 212 -1 149 -4
206 -13 215 -9 9 -60 13 -183 13 -140 0 -172 -2 -183 -15z"/>
<path d="M650 1498 c-22 -8 -41 -47 -31 -63 3 -5 6 -13 7 -17 1 -5 2 -9 4 -10
2 -3 6 -20 14 -58 3 -14 10 -35 16 -47 18 -40 69 -185 74 -208 1 -5 5 -16 9
-22 5 -7 5 -13 1 -13 -3 0 -1 -7 6 -15 7 -8 10 -15 7 -15 -2 0 9 -37 25 -82
16 -46 31 -90 33 -98 2 -8 4 -15 5 -15 1 0 3 -7 5 -15 2 -8 10 -31 19 -51 8
-20 18 -51 21 -70 3 -18 9 -37 13 -43 4 -6 7 -13 7 -16 3 -14 56 -172 74 -217
11 -29 23 -65 25 -79 3 -15 14 -36 25 -48 19 -20 29 -21 198 -20 98 1 181 2
184 3 9 2 48 77 53 102 3 13 5 25 7 27 1 1 2 5 3 10 1 4 5 13 9 20 5 6 6 12 2
12 -3 0 1 14 10 30 9 17 13 30 9 30 -4 0 -1 6 5 13 6 8 12 22 14 33 2 10 7 26
10 34 8 21 41 124 42 130 0 3 4 11 8 18 5 6 6 12 3 12 -3 0 3 20 14 45 11 25
17 45 14 45 -2 0 2 14 11 30 9 16 13 30 9 30 -4 0 -2 6 3 13 8 10 52 130 59
160 1 4 2 8 4 10 1 1 3 10 6 20 2 9 6 25 8 35 3 9 5 18 6 20 2 1 3 5 5 10 2 8
14 39 25 67 30 76 63 185 63 214 0 19 -6 39 -15 45 -11 8 -68 11 -168 11 -181
-1 -170 5 -206 -130 -1 -5 -7 -25 -13 -42 -5 -18 -7 -33 -4 -33 3 0 0 -7 -7
-15 -7 -8 -10 -15 -7 -15 4 0 0 -18 -8 -40 -8 -22 -12 -40 -8 -40 3 0 1 -6 -4
-12 -9 -11 -18 -40 -28 -83 -2 -5 -10 -36 -20 -69 -9 -32 -18 -64 -20 -70 -1
-6 -5 -19 -9 -28 -4 -9 -8 -22 -10 -30 -1 -7 -7 -22 -13 -32 -9 -17 -12 -13
-27 31 -9 27 -18 59 -21 71 -2 11 -9 30 -15 41 -6 12 -8 21 -5 21 3 0 -1 16
-9 35 -8 19 -12 35 -9 35 3 0 0 7 -7 15 -7 8 -9 15 -5 15 4 0 2 6 -4 14 -6 8
-11 18 -10 22 1 5 0 11 -1 14 -1 3 -3 12 -5 20 -2 8 -13 41 -24 73 -11 31 -18
57 -16 57 2 0 -2 15 -10 34 -8 18 -16 46 -19 62 -3 16 -14 40 -24 54 -19 25
-19 25 -195 25 -97 0 -186 -3 -197 -7z m345 -60 c8 -8 56 -170 57 -195 1 -7 4
-13 8 -13 3 0 12 -24 19 -52 12 -51 21 -81 37 -123 4 -11 8 -24 9 -30 2 -5 8
-30 15 -55 7 -25 12 -46 11 -48 -1 -1 6 -16 14 -32 9 -17 13 -30 10 -30 -3 0
-1 -8 4 -18 6 -11 12 -30 15 -43 7 -38 23 -74 39 -87 21 -17 54 13 60 55 3 17
8 36 11 42 6 10 43 136 61 211 2 8 4 16 4 18 1 1 1 4 1 7 0 3 6 21 15 41 8 19
14 38 13 42 -1 4 2 14 5 22 7 18 26 92 27 103 0 4 6 22 14 41 8 19 12 37 9 40
-3 2 -1 11 3 18 5 7 9 18 11 23 1 6 4 21 7 34 3 14 10 27 15 30 5 3 60 6 123
6 l113 0 -2 -25 c-1 -30 -6 -51 -14 -65 -7 -11 -20 -63 -18 -67 1 -2 -8 -22
-19 -44 -12 -23 -23 -52 -26 -65 -11 -55 -15 -67 -30 -102 -8 -20 -13 -37 -11
-37 2 0 -9 -30 -24 -67 -15 -38 -29 -72 -31 -78 -3 -13 -3 -10 -45 -140 -20
-60 -38 -114 -39 -120 -1 -5 -4 -14 -7 -20 -4 -5 -10 -23 -14 -40 -10 -38 -9
-34 -24 -70 -7 -16 -14 -37 -16 -45 -2 -8 -4 -16 -5 -17 -2 -2 -4 -7 -5 -13
-1 -5 -3 -11 -5 -12 -1 -2 -3 -10 -5 -18 -6 -30 -25 -70 -32 -71 -52 -8 -278
-2 -296 7 -12 7 -20 14 -18 16 5 4 -1 25 -49 163 -20 61 -47 142 -59 180 -19
61 -35 105 -67 190 -4 11 -8 26 -10 33 -1 8 -6 21 -10 30 -4 9 -9 26 -11 36
-2 11 -8 25 -14 33 -6 7 -9 13 -5 13 4 0 0 14 -9 30 -9 17 -13 30 -9 30 4 0 1
7 -6 15 -7 8 -9 15 -5 15 4 0 2 7 -5 15 -7 8 -10 15 -6 15 3 0 -3 21 -13 48
-22 57 -30 80 -32 90 -1 4 -12 34 -24 67 -29 75 -29 76 -16 84 12 8 298 7 306
-1z"/>
</g>
</svg>
